<?xml version="1.0" encoding="UTF-8" standalone="no"?>
<!DOCTYPE score-partwise PUBLIC
  "-//Recordare//DTD MusicXML 4.0 Partwise//EN"
  "http://www.musicxml.org/dtds/partwise.dtd">
<score-partwise version="4.0">
  <work>
    <work-title>Björnen sover</work-title>
  </work>
  <identification>
    <creator type="composer">Traditional Swedish / Norwegian folk tune</creator>
    <encoding>
      <software>Custom</software>
      <encoding-date>2026-04-20</encoding-date>
    </encoding>
  </identification>

  <part-list>
    <score-part id="P1">
      <part-name>Melody</part-name>
    </score-part>
  </part-list>

  <part id="P1">
    <measure number="1">
      <attributes>
        <divisions>2</divisions>
        <key><fifths>1</fifths></key>
        <time><beats>2</beats><beat-type>4</beat-type></time>
        <clef><sign>G</sign><line>2</line></clef>
      </attributes>
      <note><pitch><step>G</step><octave>4</octave></pitch><duration>1</duration><type>eighth</type></note>
      <note><pitch><step>G</step><octave>4</octave></pitch><duration>1</duration><type>eighth</type></note>
    </measure>

    <measure number="2">
      <note><pitch><step>G</step><octave>4</octave></pitch><duration>1</duration><type>eighth</type></note>
      <note><pitch><step>B</step><octave>4</octave></pitch><duration>1</duration><type>eighth</type></note>
    </measure>

    <measure number="3">
      <note><pitch><step>A</step><octave>4</octave></pitch><duration>1</duration><type>eighth</type></note>
      <note><pitch><step>A</step><octave>4</octave></pitch><duration>1</duration><type>eighth</type></note>
    </measure>

    <measure number="4">
      <note><pitch><step>A</step><octave>4</octave></pitch><duration>1</duration><type>eighth</type></note>
      <note><pitch><step>C</step><octave>5</octave></pitch><duration>1</duration><type>eighth</type></note>
    </measure>

    <measure number="5">
      <note><pitch><step>B</step><octave>4</octave></pitch><duration>1</duration><type>eighth</type></note>
      <note><pitch><step>B</step><octave>4</octave></pitch><duration>1</duration><type>eighth</type></note>
    </measure>

    <measure number="6">
      <note><pitch><step>A</step><octave>4</octave></pitch><duration>1</duration><type>eighth</type></note>
      <note><pitch><step>A</step><octave>4</octave></pitch><duration>1</duration><type>eighth</type></note>
    </measure>

    <measure number="7">
      <note><pitch><step>G</step><octave>4</octave></pitch><duration>4</duration><type>half</type></note>
    </measure>

    <measure number="8">
      <note><pitch><step>B</step><octave>4</octave></pitch><duration>1</duration><type>eighth</type></note>
      <note><pitch><step>B</step><octave>4</octave></pitch><duration>1</duration><type>eighth</type></note>
    </measure>

    <measure number="9">
      <note><pitch><step>B</step><octave>4</octave></pitch><duration>1</duration><type>eighth</type></note>
      <note><pitch><step>D</step><octave>5</octave></pitch><duration>1</duration><type>eighth</type></note>
    </measure>

    <measure number="10">
      <note><pitch><step>C</step><octave>5</octave></pitch><duration>2</duration><type>quarter</type></note>
      <note><pitch><step>C</step><octave>5</octave></pitch><duration>2</duration><type>quarter</type></note>
    </measure>

    <measure number="11">
      <note><pitch><step>A</step><octave>4</octave></pitch><duration>1</duration><type>eighth</type></note>
      <note><pitch><step>A</step><octave>4</octave></pitch><duration>1</duration><type>eighth</type></note>
    </measure>

    <measure number="12">
      <note><pitch><step>A</step><octave>4</octave></pitch><duration>1</duration><type>eighth</type></note>
      <note><pitch><step>C</step><octave>5</octave></pitch><duration>1</duration><type>eighth</type></note>
    </measure>

    <measure number="13">
      <note><pitch><step>B</step><octave>4</octave></pitch><duration>2</duration><type>quarter</type></note>
      <note><pitch><step>B</step><octave>4</octave></pitch><duration>2</duration><type>quarter</type></note>
    </measure>

    <measure number="14">
      <note><pitch><step>G</step><octave>4</octave></pitch><duration>1</duration><type>eighth</type></note>
      <note><pitch><step>G</step><octave>4</octave></pitch><duration>1</duration><type>eighth</type></note>
    </measure>

    <measure number="15">
      <note><pitch><step>G</step><octave>4</octave></pitch><duration>1</duration><type>eighth</type></note>
      <note><pitch><step>B</step><octave>4</octave></pitch><duration>1</duration><type>eighth</type></note>
    </measure>

    <measure number="16">
      <note><pitch><step>A</step><octave>4</octave></pitch><duration>1</duration><type>eighth</type></note>
      <note><pitch><step>A</step><octave>4</octave></pitch><duration>1</duration><type>eighth</type></note>
    </measure>

    <measure number="17">
      <note><pitch><step>A</step><octave>4</octave></pitch><duration>1</duration><type>eighth</type></note>
      <note><pitch><step>C</step><octave>5</octave></pitch><duration>1</duration><type>eighth</type></note>
    </measure>

    <measure number="18">
      <note><pitch><step>B</step><octave>4</octave></pitch><duration>1</duration><type>eighth</type></note>
      <note><pitch><step>B</step><octave>4</octave></pitch><duration>1</duration><type>eighth</type></note>
    </measure>

    <measure number="19">
      <note><pitch><step>A</step><octave>4</octave></pitch><duration>1</duration><type>eighth</type></note>
      <note><pitch><step>A</step><octave>4</octave></pitch><duration>1</duration><type>eighth</type></note>
    </measure>

    <measure number="20">
      <note><pitch><step>G</step><octave>4</octave></pitch><duration>4</duration><type>half</type></note>
      <barline location="right"><bar-style>light-heavy</bar-style></barline>
    </measure>
  </part>
</score-partwise>